<svg xmlns="http://www.w3.org/2000/svg" viewBox="0 0 1200 1200" fill="white">
  <path d="M 1004 307 L 1001 310 L 1000 310 L 998 312 L 997 312 L 993 316 L 992 316 L 990 318 L 989 318 L 987 320 L 986 320 L 981 325 L 980 325 L 978 327 L 977 327 L 974 330 L 973 330 L 969 334 L 968 334 L 966 336 L 965 336 L 961 340 L 960 340 L 959 341 L 958 341 L 953 346 L 952 346 L 950 348 L 949 348 L 945 352 L 944 352 L 942 354 L 941 354 L 938 357 L 937 357 L 935 359 L 934 359 L 931 362 L 930 362 L 927 365 L 926 365 L 923 368 L 922 368 L 918 372 L 917 372 L 913 376 L 912 376 L 910 378 L 909 378 L 907 380 L 906 380 L 902 384 L 901 384 L 898 387 L 897 387 L 895 389 L 894 389 L 890 393 L 889 393 L 886 396 L 885 396 L 881 400 L 880 400 L 878 402 L 877 402 L 875 404 L 874 404 L 870 408 L 869 408 L 865 412 L 864 412 L 862 414 L 861 414 L 860 415 L 859 415 L 859 416 L 858 417 L 857 417 L 855 419 L 854 419 L 851 422 L 850 422 L 847 425 L 846 425 L 844 427 L 843 427 L 838 432 L 837 432 L 835 434 L 834 434 L 832 436 L 831 436 L 827 440 L 826 440 L 825 441 L 824 441 L 824 442 L 823 443 L 822 443 L 821 444 L 820 444 L 819 445 L 818 445 L 814 449 L 813 449 L 811 451 L 810 451 L 809 452 L 807 452 L 805 454 L 804 454 L 803 453 L 803 444 L 804 443 L 804 427 L 805 426 L 805 415 L 806 414 L 806 400 L 807 399 L 807 392 L 808 391 L 808 380 L 809 379 L 809 368 L 810 367 L 810 363 L 809 362 L 808 363 L 806 363 L 805 364 L 804 364 L 803 365 L 802 365 L 800 367 L 799 367 L 797 369 L 796 369 L 795 370 L 794 370 L 792 372 L 791 372 L 790 373 L 789 373 L 787 375 L 786 375 L 785 376 L 784 376 L 782 378 L 781 378 L 780 379 L 779 379 L 777 381 L 776 381 L 775 382 L 774 382 L 772 384 L 771 384 L 769 386 L 768 386 L 767 387 L 766 387 L 765 388 L 764 388 L 762 390 L 761 390 L 759 392 L 758 392 L 757 393 L 756 393 L 755 394 L 754 394 L 752 396 L 751 396 L 749 398 L 748 398 L 747 399 L 746 399 L 745 400 L 744 400 L 742 402 L 741 402 L 739 404 L 738 404 L 737 405 L 736 405 L 734 407 L 733 407 L 732 408 L 731 408 L 729 410 L 728 410 L 726 412 L 725 412 L 724 413 L 723 413 L 721 415 L 720 415 L 719 416 L 718 416 L 716 418 L 715 418 L 713 420 L 712 420 L 711 421 L 710 421 L 708 423 L 707 423 L 706 424 L 705 424 L 703 426 L 702 426 L 700 428 L 698 428 L 696 430 L 695 430 L 693 432 L 692 432 L 690 434 L 689 434 L 688 435 L 687 435 L 685 437 L 684 437 L 683 438 L 682 438 L 680 440 L 679 440 L 677 442 L 676 442 L 674 444 L 672 444 L 669 447 L 668 447 L 667 448 L 666 448 L 665 449 L 664 449 L 662 451 L 661 451 L 659 453 L 658 453 L 657 454 L 656 454 L 655 455 L 654 455 L 652 457 L 651 457 L 649 459 L 648 459 L 647 460 L 646 460 L 644 462 L 643 462 L 642 463 L 641 463 L 639 465 L 638 465 L 636 467 L 635 467 L 633 469 L 632 469 L 631 470 L 630 470 L 628 472 L 627 472 L 626 473 L 625 473 L 623 475 L 622 475 L 621 476 L 620 476 L 619 477 L 618 477 L 615 480 L 614 480 L 613 481 L 612 481 L 611 482 L 610 482 L 609 483 L 608 483 L 606 485 L 605 485 L 604 486 L 603 486 L 601 488 L 600 488 L 598 490 L 597 490 L 595 492 L 594 492 L 592 494 L 590 494 L 588 496 L 587 496 L 585 498 L 584 498 L 583 499 L 582 499 L 580 501 L 579 501 L 577 503 L 576 503 L 575 504 L 574 504 L 573 505 L 572 505 L 568 501 L 568 500 L 565 497 L 565 496 L 560 491 L 560 490 L 558 488 L 558 487 L 555 484 L 555 483 L 552 480 L 552 479 L 549 476 L 549 475 L 545 471 L 545 470 L 544 469 L 544 468 L 540 464 L 540 463 L 537 460 L 537 459 L 534 456 L 534 455 L 531 452 L 531 451 L 527 447 L 527 446 L 525 444 L 525 443 L 523 441 L 523 440 L 518 435 L 518 434 L 516 432 L 516 431 L 512 427 L 512 426 L 510 424 L 510 423 L 507 420 L 507 419 L 503 415 L 503 414 L 499 410 L 499 409 L 497 407 L 497 406 L 495 404 L 495 403 L 491 399 L 491 398 L 488 395 L 488 394 L 485 391 L 485 390 L 482 387 L 482 386 L 481 386 L 480 385 L 479 385 L 478 386 L 478 390 L 477 391 L 477 395 L 476 396 L 476 402 L 475 403 L 475 410 L 474 411 L 474 417 L 473 418 L 473 425 L 472 426 L 472 431 L 471 432 L 471 439 L 470 440 L 470 447 L 469 448 L 469 453 L 468 454 L 468 461 L 467 462 L 467 467 L 466 468 L 466 475 L 465 476 L 465 484 L 464 485 L 464 490 L 463 491 L 463 497 L 462 498 L 462 505 L 461 506 L 461 512 L 460 513 L 460 520 L 459 521 L 459 527 L 458 528 L 458 535 L 457 536 L 457 543 L 456 544 L 456 551 L 455 552 L 455 557 L 454 558 L 454 565 L 453 566 L 453 570 L 451 572 L 450 572 L 448 574 L 447 574 L 445 576 L 444 576 L 442 578 L 441 578 L 439 580 L 438 580 L 437 581 L 436 581 L 434 583 L 433 583 L 432 584 L 431 584 L 429 586 L 428 586 L 427 587 L 426 587 L 424 589 L 423 589 L 421 591 L 420 591 L 419 592 L 418 592 L 416 594 L 415 594 L 414 595 L 413 595 L 411 597 L 410 597 L 409 598 L 408 598 L 406 600 L 405 600 L 403 602 L 402 602 L 400 604 L 399 604 L 398 605 L 397 605 L 396 606 L 395 606 L 393 608 L 392 608 L 390 610 L 389 610 L 388 611 L 387 611 L 385 613 L 384 613 L 383 614 L 382 614 L 380 616 L 379 616 L 377 618 L 376 618 L 374 620 L 373 620 L 372 621 L 371 621 L 369 623 L 368 623 L 367 624 L 366 624 L 364 626 L 363 626 L 362 627 L 361 627 L 359 629 L 358 629 L 356 631 L 355 631 L 353 633 L 352 633 L 351 634 L 350 634 L 348 636 L 347 636 L 346 637 L 345 637 L 344 638 L 343 638 L 340 641 L 339 641 L 338 642 L 337 642 L 335 644 L 334 644 L 333 645 L 332 645 L 329 648 L 328 648 L 327 649 L 326 649 L 325 650 L 324 650 L 322 652 L 321 652 L 319 654 L 318 654 L 317 655 L 316 655 L 314 657 L 313 657 L 310 660 L 309 660 L 308 661 L 308 662 L 309 663 L 313 663 L 314 664 L 319 664 L 320 665 L 324 665 L 325 666 L 331 666 L 332 667 L 337 667 L 338 668 L 343 668 L 344 669 L 349 669 L 350 670 L 355 670 L 356 671 L 360 671 L 361 672 L 367 672 L 368 673 L 373 673 L 374 674 L 379 674 L 380 675 L 386 675 L 387 676 L 392 676 L 393 677 L 398 677 L 399 678 L 403 678 L 404 679 L 410 679 L 411 680 L 416 680 L 417 681 L 422 681 L 423 682 L 427 682 L 428 683 L 433 683 L 434 684 L 440 684 L 442 686 L 442 695 L 441 696 L 441 703 L 440 704 L 440 713 L 439 714 L 439 724 L 438 725 L 438 733 L 437 734 L 437 743 L 436 744 L 436 754 L 435 755 L 435 763 L 434 764 L 434 774 L 433 775 L 433 783 L 432 784 L 432 795 L 431 796 L 431 805 L 430 806 L 430 814 L 429 815 L 429 828 L 428 829 L 428 832 L 429 833 L 430 832 L 431 832 L 449 814 L 449 813 L 452 810 L 453 810 L 453 809 L 454 808 L 455 808 L 455 807 L 467 795 L 467 794 L 487 774 L 487 773 L 501 759 L 501 758 L 502 757 L 503 757 L 505 755 L 505 754 L 508 751 L 509 751 L 509 750 L 526 733 L 526 732 L 528 730 L 529 730 L 529 729 L 541 717 L 549 717 L 550 718 L 554 718 L 555 719 L 558 719 L 559 720 L 563 720 L 564 721 L 567 721 L 568 722 L 573 722 L 574 723 L 577 723 L 578 724 L 582 724 L 583 725 L 586 725 L 587 726 L 591 726 L 592 727 L 595 727 L 596 728 L 599 728 L 600 729 L 605 729 L 606 730 L 609 730 L 610 731 L 615 731 L 616 732 L 618 732 L 619 733 L 623 733 L 624 734 L 628 734 L 629 735 L 633 735 L 634 736 L 638 736 L 639 737 L 642 737 L 643 738 L 647 738 L 648 739 L 652 739 L 653 740 L 657 740 L 658 741 L 661 741 L 662 742 L 665 742 L 666 743 L 671 743 L 672 744 L 676 744 L 677 745 L 679 745 L 680 746 L 685 746 L 686 747 L 689 747 L 690 748 L 695 748 L 696 749 L 699 749 L 700 750 L 705 750 L 706 751 L 709 751 L 710 752 L 715 752 L 716 753 L 719 753 L 720 754 L 723 754 L 724 755 L 728 755 L 728 752 L 727 751 L 727 750 L 725 748 L 725 747 L 723 745 L 723 744 L 722 743 L 722 742 L 720 740 L 720 739 L 719 738 L 719 737 L 717 735 L 717 734 L 716 733 L 716 732 L 715 731 L 715 730 L 713 728 L 713 727 L 712 726 L 712 725 L 710 723 L 710 722 L 709 721 L 709 720 L 707 718 L 707 717 L 706 716 L 706 715 L 704 713 L 704 712 L 703 711 L 703 710 L 701 708 L 701 707 L 699 705 L 699 704 L 698 703 L 698 702 L 696 700 L 696 699 L 695 698 L 695 697 L 694 696 L 694 695 L 692 693 L 692 692 L 690 690 L 690 689 L 688 687 L 688 686 L 687 685 L 687 684 L 686 683 L 686 682 L 685 681 L 685 680 L 682 677 L 682 676 L 681 675 L 681 674 L 680 673 L 680 672 L 679 671 L 679 670 L 676 667 L 676 666 L 675 665 L 675 664 L 674 663 L 674 662 L 672 660 L 672 659 L 670 657 L 670 656 L 669 655 L 669 654 L 668 653 L 668 652 L 666 650 L 666 649 L 664 647 L 664 646 L 663 645 L 663 644 L 661 642 L 661 641 L 660 640 L 660 639 L 658 637 L 658 636 L 657 635 L 657 634 L 655 632 L 655 631 L 653 629 L 653 628 L 652 627 L 652 626 L 651 625 L 651 624 L 649 622 L 649 621 L 648 620 L 648 619 L 646 617 L 646 616 L 645 615 L 645 614 L 643 612 L 643 611 L 642 610 L 642 609 L 640 607 L 640 606 L 638 604 L 638 602 L 640 600 L 640 599 L 642 597 L 642 596 L 647 591 L 647 590 L 651 586 L 651 585 L 655 581 L 655 580 L 658 577 L 658 576 L 659 575 L 660 575 L 660 574 L 664 570 L 664 569 L 670 563 L 670 562 L 674 558 L 674 557 L 678 553 L 678 552 L 682 548 L 682 547 L 686 543 L 686 542 L 692 536 L 692 535 L 695 532 L 695 531 L 699 527 L 699 526 L 704 521 L 704 520 L 710 514 L 710 513 L 715 508 L 715 507 L 718 504 L 718 503 L 724 497 L 724 496 L 729 491 L 729 490 L 734 485 L 734 484 L 736 482 L 737 482 L 738 481 L 739 481 L 740 482 L 739 483 L 739 485 L 740 486 L 740 494 L 741 495 L 741 515 L 742 516 L 742 541 L 743 542 L 743 565 L 744 566 L 744 594 L 745 595 L 745 615 L 748 615 L 753 610 L 753 609 L 760 602 L 760 601 L 765 596 L 765 595 L 772 588 L 772 587 L 779 580 L 779 579 L 783 575 L 783 574 L 784 573 L 785 573 L 786 572 L 786 571 L 791 566 L 791 565 L 795 561 L 795 560 L 796 559 L 797 559 L 797 558 L 798 557 L 799 557 L 799 556 L 806 549 L 806 548 L 811 543 L 811 542 L 815 538 L 815 537 L 821 531 L 821 530 L 822 529 L 823 529 L 823 528 L 828 523 L 828 522 L 833 517 L 833 516 L 840 509 L 840 508 L 842 506 L 842 505 L 844 503 L 845 503 L 845 502 L 847 500 L 847 499 L 848 498 L 849 498 L 849 497 L 855 491 L 855 490 L 861 484 L 861 483 L 867 477 L 867 476 L 870 473 L 870 472 L 874 468 L 874 467 L 881 460 L 881 459 L 885 455 L 885 454 L 892 447 L 892 446 L 897 441 L 897 440 L 901 436 L 901 435 L 905 431 L 905 430 L 906 429 L 907 429 L 907 428 L 910 425 L 910 424 L 911 423 L 912 423 L 912 422 L 915 419 L 915 418 L 919 414 L 919 413 L 920 412 L 921 412 L 921 411 L 925 407 L 925 406 L 931 400 L 931 399 L 937 393 L 937 392 L 941 388 L 941 387 L 945 383 L 945 382 L 950 377 L 950 376 L 955 371 L 955 370 L 960 365 L 960 364 L 966 358 L 966 357 L 970 353 L 970 352 L 973 349 L 973 348 L 974 347 L 975 347 L 975 346 L 979 342 L 979 341 L 983 337 L 983 336 L 988 331 L 988 330 L 993 325 L 993 324 L 998 319 L 998 318 L 1002 314 L 1002 313 L 1007 308 L 1007 307 Z"/>
</svg>
